<?xml version="1.0" standalone="no"?>
<!DOCTYPE svg PUBLIC "-//W3C//DTD SVG 20010904//EN"
 "http://www.w3.org/TR/2001/REC-SVG-20010904/DTD/svg10.dtd">
<svg version="1.0" xmlns="http://www.w3.org/2000/svg"
 width="480.000000pt" height="523.000000pt" viewBox="0 0 480.000000 523.000000"
 preserveAspectRatio="xMidYMid meet">

<g transform="translate(0.000000,523.000000) scale(0.100000,-0.100000)"
fill="#000000" stroke="none">
<path d="M2310 4504 c-146 -30 -268 -85 -374 -172 -173 -142 -267 -350 -267
-592 0 -140 19 -247 67 -388 67 -197 164 -368 278 -489 l60 -65 -24 -44 c-13
-25 -38 -58 -57 -74 -77 -68 -270 -143 -589 -230 -351 -95 -419 -125 -524
-230 -109 -109 -166 -243 -177 -419 -6 -88 10 -260 27 -291 42 -79 431 -130
1156 -151 836 -25 1859 31 2114 116 69 23 78 38 92 147 28 228 -47 447 -205
594 -61 58 -164 119 -249 150 -24 8 -133 40 -243 70 -484 132 -637 202 -693
316 l-21 41 68 72 c122 129 194 241 272 422 101 235 120 481 54 690 -75 238
-289 450 -514 508 -65 17 -207 27 -251 19z"/>
<path d="M1225 4042 c-190 -58 -344 -221 -390 -414 -48 -205 23 -491 178 -716
27 -40 65 -86 84 -102 l34 -31 -33 -46 c-57 -80 -184 -133 -538 -229 -281 -75
-386 -159 -444 -353 -16 -55 -21 -242 -7 -306 8 -40 68 -68 191 -89 89 -15
311 -37 318 -31 2 1 5 36 7 77 10 190 74 347 188 462 113 114 205 161 431 222
149 40 467 134 479 141 5 3 -6 14 -25 25 -45 27 -87 67 -104 101 -15 28 -14
29 49 96 60 64 137 176 137 199 0 6 -20 50 -44 99 -124 250 -177 559 -130 765
16 68 16 72 -2 85 -77 56 -266 79 -379 45z"/>
<path d="M3290 4044 c-133 -44 -130 -41 -104 -164 40 -189 -17 -492 -141 -742
l-43 -86 20 -39 c33 -61 72 -114 127 -173 28 -30 51 -61 51 -69 0 -25 -49 -80
-96 -107 -25 -15 -42 -30 -37 -34 10 -10 188 -65 373 -115 246 -68 274 -77
340 -110 224 -113 342 -291 373 -562 l13 -118 64 3 c163 8 354 41 404 70 39
23 48 55 49 187 3 173 -40 284 -146 380 -66 60 -138 93 -287 132 -52 13 -140
38 -195 54 -254 76 -310 106 -395 215 -5 7 6 25 32 50 126 123 238 365 268
579 30 212 -59 438 -219 553 -62 46 -136 82 -196 98 -65 18 -198 16 -255 -2z"/>
<path d="M1754 1096 c-24 -24 -34 -43 -34 -66 0 -64 43 -109 104 -110 30 0 45
7 73 35 32 32 35 39 30 78 -8 55 -52 97 -103 97 -28 0 -44 -8 -70 -34z m100
-45 c23 -25 13 -59 -20 -67 -30 -8 -54 11 -54 42 0 22 22 43 46 44 6 0 19 -9
28 -19z"/>
<path d="M2030 705 l0 -365 288 0 288 0 51 25 c63 32 100 82 113 156 6 31 9
163 8 300 l-3 244 -372 3 -373 2 0 -365z m585 40 c0 -93 -3 -182 -8 -197 -14
-50 -47 -58 -242 -58 l-175 0 0 215 0 215 213 -2 212 -3 0 -170z"/>
<path d="M2940 975 l0 -75 283 -2 282 -3 -2 -115 c-3 -143 -16 -196 -55 -245
-50 -60 -79 -67 -285 -73 l-183 -5 0 -74 0 -75 213 4 c243 4 292 16 366 88 89
86 111 175 111 453 l0 197 -365 0 -365 0 0 -75z"/>
<path d="M1110 960 l0 -70 278 -2 277 -3 -3 -119 c-4 -182 -27 -239 -117 -285
-47 -25 -60 -26 -227 -29 l-178 -4 0 -74 0 -74 153 0 c237 0 350 27 426 100
79 76 110 185 111 381 l0 107 -37 7 c-45 8 -90 54 -99 101 l-6 34 -289 0 -289
0 0 -70z"/>
</g>
</svg>
